<svg id="filled_outline" height="512" viewBox="0 0 512 512" width="512" xmlns="http://www.w3.org/2000/svg" data-name="filled outline"><path d="m352 56h72v200h-72z" fill="#b1712c"/><path d="m440 256v168h-368v-168l184-144 61.33 48 20.45 16 20.44 16 20.45 16 20.44 16 20.45 16z" fill="#b1712c"/><g fill="#c78640"><path d="m304 296h-264l139.765-108.706z"/><path d="m24 392h96v32h-96z"/><path d="m232 392h256v32h-256z"/></g><path d="m24 424h96v64h-96z" fill="#b1712c"/><path d="m232 424h256v64h-256z" fill="#b1712c"/><path d="m120 424h112v64h-112z" fill="#d69651"/><path d="m120 456h112v32h-112z" fill="#c78640"/><path d="m152 328h48v96h-48z" fill="#a36522"/><path d="m336 24h104v32h-104z" fill="#c78640"/><path d="m320 272-16 24-124.235-108.706 22.398-17.42z" fill="#ffc431"/><path d="m40 296 216-168 216 168 16-24-232-184-232 184z" fill="#ffc431"/><path d="m488 384h-40v-96.53223l19.08887 14.84668a7.99941 7.99941 0 0 0 11.56738-1.877l16-24a7.99835 7.99835 0 0 0 -1.68555-10.70508l-60.9707-48.35591v-153.37646h8a8.00039 8.00039 0 0 0 8-8v-32a8.00039 8.00039 0 0 0 -8-8h-104a8.00039 8.00039 0 0 0 -8 8v32a8.00039 8.00039 0 0 0 8 8h8v83.58325l-83.0293-65.85083a7.99548 7.99548 0 0 0 -9.9414 0l-232 184a7.99835 7.99835 0 0 0 -1.68555 10.70508l16 24a7.86945 7.86945 0 0 0 6.65625 3.55127v.01123h24v80h-40a8.00039 8.00039 0 0 0 -8 8v96a8.00039 8.00039 0 0 0 8 8h464a8.00039 8.00039 0 0 0 8-8v-96a8.00039 8.00039 0 0 0 -8-8zm-200 48v48h-16v-48zm16 0h16v48h-16zm32 0h16v48h-16zm32 0h16v48h-16zm32 0h16v48h-16zm32 0h16v48h-16zm-192-16v-16h240v16zm-112 48h96v16h-96zm0-16v-16h96v16zm80-112h64v16h-64zm-6.11279-155.77783 107.54541 93.20654-7.0293 10.54395-110.0752-96.31543zm-22.42212 17.43945 30.10107 26.33838h-49.56616v16h67.85181l18.28589 16h-118.1377v16h136v-.37012l18.709 16.37012h-219.39357zm12.53491 218.33838h-32v-80h32zm40-32a8.00039 8.00039 0 0 0 -8 8v24h-16v-48h64v16zm200-96h-96v16h96v16h-128v16h128v16h-128v16h128v16h-144v-80h16a8.13185 8.13185 0 0 0 1.05273-.06934 8.00117 8.00117 0 0 0 5.60352-3.49316l16-24a8.00015 8.00015 0 0 0 -1.417-10.4834l-110.47631-95.7461 41.23706-32.07323 28.11255 21.86523h-36.11255v16h56.68408l20.57154 16h-45.25562v16h65.82715l20.57129 16h-54.39844v16h74.97l20.57153 16h-63.54153v16h84.113l3.887 3.02344zm-88-256h88v16h-88zm16 32h56v140.68677l-56-44.41377zm-325.25781 209.69141 221.25781-175.48047 221.25781 175.48047-7.13965 10.71-209.207-162.71582a7.99747 7.99747 0 0 0 -9.82226 0l-209.20706 162.71578zm45.25781 30.30859h192v16h-176v16h48v16h-48v16h48v48h-16v-24a8.00039 8.00039 0 0 0 -8-8h-40zm-48 96h80v16h-80zm48 32v48h-16v-48zm-48 0h16v48h-16zm64 48v-48h16v48zm144-48h16v48h-16zm224 48v-48h16v48z"/></svg>