<svg id="Layer_1" enable-background="new 0 0 511.98 511.98" height="512" viewBox="0 0 511.98 511.98" width="512" xmlns="http://www.w3.org/2000/svg"><g><path d="m480.971 415.16c-35.804 0-64.932-29.128-64.932-64.932v-118.813l33.172-27.255-19.045-23.18-14.127 11.607v-64.257h-320.098v147.929l-33.499-27.524-19.045 23.18 52.544 43.171v35.143c0 35.803-29.128 64.932-64.932 64.932v15h449.961v-15.001z" fill="#60382c"/><path d="m480.971 415.16c-35.804 0-64.932-29.128-64.932-64.932v-118.813l33.172-27.255-19.045-23.18-14.127 11.607v-64.257h-160.033v301.83h224.965z" fill="#3c1b13"/><g><path d="m210.988 296.744h30v133.417h-30z" fill="#c1674c"/></g><g><path d="m270.992 265.216h30v98.236h-30z" fill="#c1674c"/></g><g><path d="m150.984 229.824h30v60.911h-30z" fill="#c1674c"/></g><g><path d="m330.996 246.327h30v58.815h-30z" fill="#c1674c"/></g><g><path d="m330.996 361.345h30v68.815h-30z" fill="#c1674c"/></g><g><path d="m330.996 361.345h30v68.815h-30z" fill="#8c4a50"/></g><g><path d="m150.984 316.978h30v30.002h-30z" fill="#c1674c"/></g><g><path d="m270.992 214.325h30v30.002h-30z" fill="#c1674c"/></g><ellipse cx="255.99" cy="128.329" fill="#c1674c" rx="145.048" ry="46.509"/><path d="m401.039 128.329c0-25.684-64.932-46.506-145.033-46.508v93.017c80.1-.003 145.033-20.825 145.033-46.509z" fill="#8c4a50"/><path d="m255.99 189.837c-77.084 0-160.049-19.248-160.049-61.509 0-42.26 82.965-61.508 160.049-61.508s160.049 19.248 160.049 61.508c0 42.261-82.965 61.509-160.049 61.509zm0-93.017c-37.231 0-72.029 4.583-97.985 12.906-26.489 8.494-32.063 17.234-32.063 18.603s5.574 10.109 32.063 18.603c25.956 8.322 60.754 12.906 97.985 12.906s72.029-4.583 97.985-12.906c26.489-8.494 32.063-17.234 32.063-18.603s-5.574-10.109-32.063-18.603c-25.955-8.322-60.753-12.906-97.985-12.906z" fill="#8c4a50"/><g><path d="m0 415.16h511.98v30h-511.98z" fill="#00aa95"/></g><g><path d="m270.992 265.216h30v98.236h-30z" fill="#8c4a50"/></g><g><path d="m330.996 246.327h30v58.815h-30z" fill="#8c4a50"/></g><g><path d="m270.992 214.325h30v30.002h-30z" fill="#8c4a50"/></g><path d="m416.039 128.329c0-42.257-82.954-61.506-160.033-61.508v30c37.226.001 72.017 4.585 97.97 12.906 26.489 8.494 32.063 17.234 32.063 18.603s-5.574 10.109-32.063 18.603c-25.952 8.321-60.744 12.904-97.97 12.906v30c77.079-.004 160.033-19.253 160.033-61.51z" fill="#66333e"/><path d="m256.006 415.16h255.975v30h-255.975z" fill="#008285"/></g></svg>